<?xml version="1.0" encoding="iso-8859-1"?>
<!-- Generator: Adobe Illustrator 19.0.0, SVG Export Plug-In . SVG Version: 6.00 Build 0)  -->
<svg version="1.1" id="Capa_1" xmlns="http://www.w3.org/2000/svg" xmlns:xlink="http://www.w3.org/1999/xlink" x="0px" y="0px"
	 viewBox="0 0 479.341 479.341" style="enable-background:new 0 0 479.341 479.341;" xml:space="preserve">
<ellipse style="fill:#DFE9F7;" cx="239.654" cy="447.341" rx="144" ry="32"/>
<path style="fill:#C2D6EF;" d="M239.671,415.34c-2.05,0-4.047,0.05-6.078,0.068l-16.836,45.124l64.984,17.412
	c58.996-4.001,101.93-16.186,101.93-30.605C383.671,429.666,319.202,415.34,239.671,415.34z"/>
<path style="fill:#815327;" d="M207.671,390.938v64c0,4.418,14.328,8,32,8s32-3.582,32-8v-64H207.671z"/>
<path id="SVGCleanerId_0" style="fill:#459C60;" d="M395.3,364.34L254.018,194.446c-7.461-8.972-21.234-8.972-28.695,0
	L84.041,364.34c-8.996,10.818-3.402,26.018,8.402,29.714c39.371,12.496,90.867,20.066,147.226,20.066s107.855-7.57,147.226-20.066
	C398.702,390.358,404.296,375.157,395.3,364.34z"/>
<g>
	<path id="SVGCleanerId_0_1_" style="fill:#459C60;" d="M395.3,364.34L254.018,194.446c-7.461-8.972-21.234-8.972-28.695,0
		L84.041,364.34c-8.996,10.818-3.402,26.018,8.402,29.714c39.371,12.496,90.867,20.066,147.226,20.066s107.855-7.57,147.226-20.066
		C398.702,390.358,404.296,375.157,395.3,364.34z"/>
</g>
<polygon style="fill:#FACE59;" points="239.671,0 224.556,46.496 175.671,46.506 215.223,75.242 200.119,121.738 239.671,93.002 
	279.223,121.738 264.119,75.242 303.671,46.506 254.775,46.496 "/>
<g>
	<circle style="fill:#FFFFFF;" cx="155.646" cy="342.533" r="16"/>
	<circle style="fill:#FFFFFF;" cx="235.646" cy="374.533" r="16"/>
</g>
<path style="fill:#3A8351;" d="M394.537,363.424L254.018,194.446c-7.461-8.972-21.234-8.972-28.695,0l-84.078,101.107
	L394.537,363.424z"/>
<path style="fill:#459C60;" d="M363.264,244.696L255.026,118.038c-7.883-9.468-22.828-9.468-30.711,0L116.076,244.696
	c-9.695,11.646-2.438,27.729,10.926,30.466c33.098,7.018,71.59,11.04,112.668,11.04s79.57-4.022,112.668-11.04
	C365.702,272.425,372.96,256.342,363.264,244.696z"/>
<g>
	<circle style="fill:#FFFFFF;" cx="187.646" cy="238.533" r="16"/>
	<circle style="fill:#FFFFFF;" cx="251.646" cy="174.533" r="16"/>
	<circle style="fill:#FFFFFF;" cx="331.646" cy="342.533" r="16"/>
</g>
<path style="fill:#C2D6EF;" d="M345.381,350.252c1.313-2.322,2.262-4.86,2.262-7.717c0-8.837-7.164-16-16-16
	c-8.754,0-15.817,7.042-15.953,15.762L345.381,350.252z"/>
<g>
</g>
<g>
</g>
<g>
</g>
<g>
</g>
<g>
</g>
<g>
</g>
<g>
</g>
<g>
</g>
<g>
</g>
<g>
</g>
<g>
</g>
<g>
</g>
<g>
</g>
<g>
</g>
<g>
</g>
</svg>
